<?xml version="1.0" standalone="no"?>
<!DOCTYPE svg PUBLIC "-//W3C//DTD SVG 20010904//EN"
 "http://www.w3.org/TR/2001/REC-SVG-20010904/DTD/svg10.dtd">
<svg version="1.0" xmlns="http://www.w3.org/2000/svg"
 width="345.441432pt" height="161.838799pt" viewBox="0 0 345.441432 161.838799"
 preserveAspectRatio="xMidYMid meet">
<metadata>
Created by potrace 1.12, written by Peter Selinger 2001-2015
</metadata>
<g transform="translate(-24.021128,290.849277) scale(0.100000,-0.100000)"
fill="#000000" stroke="none">
<path d="M725 2900 c-89 -12 -154 -35 -221 -78 -119 -78 -200 -180 -239 -305
-25 -77 -25 -84 -25 -415 0 -193 5 -356 11 -382 18 -82 80 -191 144 -256 67
-68 126 -105 224 -142 65 -25 71 -26 426 -30 440 -5 425 -10 310 105 -44 45
-100 114 -129 162 -28 46 -63 93 -77 103 -34 25 -89 37 -169 38 -91 0 -162 42
-202 119 l-28 53 0 228 0 228 28 53 c21 42 40 61 82 87 l54 32 554 0 554 0 49
-27 c84 -45 133 -146 114 -235 -19 -93 -102 -170 -194 -183 -27 -4 -62 -15
-78 -25 -31 -19 -63 -74 -63 -109 0 -39 28 -90 62 -111 31 -20 46 -20 273 -18
222 3 244 5 287 25 210 97 310 428 209 690 -72 184 -216 315 -411 374 -75 23
-80 23 -780 25 -388 1 -732 -2 -765 -6z"/>
<path d="M2528 2904 c-18 -17 -4 -39 68 -107 54 -51 91 -98 128 -161 64 -112
88 -126 219 -134 61 -3 104 -11 128 -23 51 -25 105 -92 118 -144 14 -56 14
-428 0 -478 -13 -47 -70 -112 -120 -138 -36 -18 -65 -19 -591 -19 -515 0 -556
2 -593 19 -111 50 -155 182 -101 298 30 65 87 108 164 124 78 17 109 34 128
71 35 68 11 153 -52 183 -47 22 -428 22 -504 -1 -180 -53 -293 -245 -292 -494
1 -259 167 -487 414 -571 109 -37 199 -40 918 -37 685 3 696 4 760 25 182 62
332 223 375 404 21 92 21 666 0 758 -45 188 -202 351 -396 408 -44 13 -123 17
-409 20 -195 3 -358 1 -362 -3z"/>
</g>
</svg>
