<?xml version="1.0" standalone="no"?>
<!DOCTYPE svg PUBLIC "-//W3C//DTD SVG 20010904//EN"
 "http://www.w3.org/TR/2001/REC-SVG-20010904/DTD/svg10.dtd">
<svg version="1.0" xmlns="http://www.w3.org/2000/svg"
 width="336.297213pt" height="363.844129pt" viewBox="0 0 336.297213 363.844129"
 preserveAspectRatio="xMidYMid meet">
<metadata>
Created by potrace 1.12, written by Peter Selinger 2001-2015
</metadata>
<g transform="translate(-28.106899,391.913893) scale(0.100000,-0.100000)"
fill="#000000" stroke="none">
<path d="M2535 3905 c-99 -28 -212 -93 -298 -173 -298 -277 -536 -507 -546
-528 -17 -37 7 -40 97 -13 109 32 244 30 365 -5 139 -41 164 -36 267 59 97 89
175 118 260 95 39 -10 68 -35 217 -184 193 -193 212 -223 213 -323 0 -112 -19
-144 -272 -460 -502 -625 -520 -644 -622 -679 -61 -21 -156 -15 -212 14 -58
30 -110 92 -128 153 -20 66 -20 92 0 159 19 63 34 90 87 148 86 96 89 185 7
227 -43 22 -96 18 -151 -11 -48 -27 -329 -317 -410 -425 -109 -144 -105 -346
10 -520 146 -223 404 -360 676 -360 178 0 328 50 463 155 78 61 99 84 264 301
80 105 274 359 431 565 158 206 300 400 317 432 69 130 94 344 57 488 -27 103
-88 219 -152 290 -114 126 -511 522 -547 546 -68 43 -149 64 -250 63 -51 0
-115 -7 -143 -14z"/>
<path d="M1764 3091 c-83 -22 -178 -68 -247 -119 -46 -33 -232 -230 -839 -884
-285 -307 -320 -354 -365 -496 -34 -104 -42 -257 -19 -367 19 -96 87 -239 148
-311 39 -46 295 -291 485 -465 84 -77 183 -132 274 -154 83 -19 238 -19 314 0
169 43 242 96 508 362 186 188 217 223 217 249 0 58 -13 65 -140 68 -86 2
-143 9 -228 31 -139 35 -164 30 -255 -52 -103 -93 -194 -120 -300 -89 -49 14
-73 32 -179 130 -227 210 -254 238 -273 295 -23 71 -17 170 14 234 14 30 91
120 205 240 99 106 284 304 410 440 197 212 237 251 289 277 186 93 380 -50
327 -240 -5 -19 -35 -64 -65 -98 -69 -79 -85 -110 -92 -177 -7 -68 0 -97 37
-138 53 -61 152 -72 239 -28 49 26 105 85 257 276 146 184 175 238 182 340 6
97 -11 170 -69 285 -88 176 -244 315 -420 375 -113 38 -305 46 -415 16z"/>
</g>
</svg>
